# xmcd
#
# Track frame offsets:
#	150
#	3500
#	25045
#	51447
#	77537
#	99802
#	119630
#	142147
#	162730
#	182615
#	203410
#	222190
#	236962
#	257692
#
# Disc length: 3601 seconds
#
# Revision: 1
# Processed by: cddbd v1.5.2PL0 Copyright (c) Steve Scherf et al.
# Submitted via: audiograbber 1.83.01
#
DISCID=c00e0f0e
DTITLE=Billy Ray Cyrus and Friends - Heartland Live
DYEAR=1995
DGENRE=Country
TTITLE0=Intro
TTITLE1=Heartland
TTITLE2=The Thunder Rolls
TTITLE3=Friends In Low Places
TTITLE4=A Healing Fire
TTITLE5=Crying
TTITLE6=Sign Of The Dotted Line
TTITLE7=Johnny Come Lately
TTITLE8=The Will To Love
TTITLE9=Indian Man
TTITLE10=Losing you
TTITLE11=Cry Out
TTITLE12=The Will To Love
TTITLE13=Achy Breaky Heart (Don't Tell My Heart)
EXTD=Signature Series
EXTT0=
EXTT1=
EXTT2=
EXTT3=
EXTT4=
EXTT5=
EXTT6=
EXTT7=
EXTT8=
EXTT9=
EXTT10=
EXTT11=
EXTT12=
EXTT13=
PLAYORDER=
